<?xml version="1.0" encoding="utf-8"?>
<!-- Generator: Adobe Illustrator 19.1.0, SVG Export Plug-In . SVG Version: 6.00 Build 0)  -->
<svg version="1.1" id="Layer_1" xmlns="http://www.w3.org/2000/svg" xmlns:xlink="http://www.w3.org/1999/xlink" x="0px" y="0px"
	 viewBox="0 0 251 251" style="enable-background:new 0 0 251 251;" xml:space="preserve">
<style type="text/css">
	.st0{fill:url(#SVGID_1_);}
	.st1{clip-path:url(#SVGID_3_);}
	.st2{fill:url(#SVGID_4_);}
</style>
<radialGradient id="SVGID_1_" cx="163.5195" cy="187.5318" r="201.6138" gradientUnits="userSpaceOnUse">
	<stop  offset="0" style="stop-color:#72D8FF"/>
	<stop  offset="1" style="stop-color:#F2EBFF"/>
</radialGradient>
<circle class="st0" cx="125.5" cy="125.5" r="122.2"/>
<g>
	<defs>
		<circle id="SVGID_2_" cx="125.5" cy="125.5" r="122.2"/>
	</defs>
	<clipPath id="SVGID_3_">
		<use xlink:href="#SVGID_2_"  style="overflow:visible;"/>
	</clipPath>
	<g class="st1">
		<g>
			<path d="M145.2,45.6c1.1-2.7,4.1-4.8,4.5-6.5c0.7-2.7,1.8-4.1-2.2-6.1c-2.5-1.2-9.6-3.5-11.3-1.2c-1.7,2.3-3.9,10.3-4.8,12.9
				c-4.1,11.4-2.8,7.9-6.8,17.9c-3.2,7.6-8.2,15.2-8.8,16.4c-7.2,12.9-9.6,15.2-16.1,28.4c-2.1,4.2-2.5,16.2-3.2,20.9
				c-0.4,2.6,2.1,11,6.1,12.1c4,1,6.4-5.4,10.5-5.7c2.6-0.2,5.7-1.2,7.4-2.9c1.8-1.7,2-5.6,1.8-8c-0.4-3.8-1.6-6,0.2-9.5
				c1.8-3.5,5.4-5.9,7.9-9c4-5,5.5-12.1,11-15.2c1.1-0.6,2.4-1.1,3.3-1.9c1.6-1.5,2-4.2,0.7-6.1c-0.6-0.9-1.5-1.6-2.3-2.3
				c-2.6-2.5-2.9-7.7-3.1-11.3c-0.2-3.6-1.6-6.2-0.6-9.6C140.9,53.1,142.8,51.2,145.2,45.6z"/>
		</g>
		<g>
			<path d="M103.8,148.4c-1,0.2-5.6,2.6-7,4.2c-1.7,1.9-4.9,4.7-3.7,6.9c0.7,1.3,2.5,2.4,4.3,2.3c2.9-0.1,3.5-1.1,6.8-2.8
				c1.2-0.7,2.5-2.4,3.4-3.6C113.8,147.6,106.4,147.8,103.8,148.4z"/>
		</g>
		<g>
			<path d="M140.3,22.5c0.9,1.8,18.6,5.8,19.3,9.9c0.4,2-2.4,5.7-2.7,7.7c-0.6,3.2-3.9,7.6-4.8,9.5c-3.5,7.4-4.3,10.7-3.5,18.8
				c0.3,3.6,3.9,7.4,5.5,7.1c5.7-1.1,0.8-3.4,5.6-4c2.4-0.3,3.9,2.3,7.6,2.4c8.3,0.2,2.2-4.1,11.9-5.7c3.1-0.5,3.3,4.2,7.8,0.6
				c3.5-2.8,5.6,2.4,8-0.1c2.1-2.2-0.3-5.4-0.8-6c-2.6-3-5-1.1-4.1-7.8c0.6-4.5-1.3-7.7-1.4-12.2c0-1,1.5-2.8,2.2-2.9
				c1.5-0.1,7.1,10.5,9.9,13.7c0.6,0.6,2.7,0.9,2.1-1.5c-0.9-3.6-3.3-10.1-3.3-12.2c0.1-7.5,3.1-6.4,4.2-9.2
				c1.8-4.5,1.8-26,3.3-28.5l-61.7-3.3C143.9,4.2,139.6,21,140.3,22.5z"/>
		</g>
		<g>
			<path d="M17.4,258.7c3.9-2.6,7.8-5.4,11.6-8.2c4.4-3.2,16-12.3,17.6-13.7c5.1-4.6,12-2.4,18.2-5.3c6.6-3,20.8-20.1,24.7-26.3
				c3.6-5.9,3.2-7.1,2.1-13.9c-0.3-1.7-2-3.4-2.4-5c-0.4-1.6-1.1-3.2-1.8-4.7c-2-4.1-5-8.1-9.4-9c-3.8-0.7-7.6,1.1-11.3,2.1
				c-5,1.4-10.3,1.4-15.4,0.8c-6.8-0.7-13.8-6-20.2-3.7c-2.2,0.8-3.1,0.8-4.2,2.9c-1.4,2.5-0.8,6,1.4,7.9c1.5,1.3,1.4,4.3,1.4,6.3
				c0.1,5.6-3.3,15.9-6.2,20.7c-1.3,2.2-2.8,4.3-4.6,6.1c-1.5,1.5-3.3,2.7-5,4C8,223.7,2.3,228-2.7,233.2c-0.2,0.2-0.6,0.5-1.1,0.9
				V262h15.8C13.9,261,15.6,259.8,17.4,258.7z"/>
		</g>
		<g>
			<path d="M222.4,67.7c-1.5,1.2-2.4,3-2.9,4.9c-0.5,1.9-0.6,3.8-0.8,5.7c-0.1,1.1-0.3,2.2-1.1,2.9c-1.6,1.2-3.9-0.4-5.9-0.2
				c-1.9,0.2-3.1,2.1-3.4,4c-0.3,1.9,0.1,3.7,0.4,5.6c0.2,1.8,0.2,3.6,0.1,5.5c-0.1,0.6-1.5,1.9-3.8,1.3c-7.2-2-15.6-2.3-21.9,1.8
				c-2.9,1.9-5.1,4.7-8.3,5.9c-1.9,0.7-6.3,3.4-7,3.5c-3,0.9-6.7-0.7-8.2-3.4c-0.9-1.7-3.2-2.2-4.8-1c-1.3,1-2.4,2.4-3.3,3.8
				c-3,4.8-3.2,6.1-6.2,10.7c-0.5,0.7-4.8,7-5,7.9c-2.1,8.9-8.2,17.8-15.7,22.5c-4.6,2.9-4.7,5.5-7.6,10.2c-1.4,2.2-2.4,4.7-3.4,7.2
				c-1.1,2.7-2.2,5.5-2.1,8.4c0.2,5.6,4.7,9.9,9.1,13.4c2.2,1.7,9.4,3.7,8.4,6.2c-0.7,1.8-7.6,3-9.5,3.2c-1.2,0.1-2.5,0.1-3.3,1
				c-1,1.2-0.2,3.1,1.1,3.9s3,0.6,4.5,0.5c14-1.4,27.9-4.4,41.2-9c1.5-0.5,3.2-1.2,3.9-2.7c0.9-1.8,0-3.9-0.7-5.8
				c-1.5-4.2-1.7-9-0.4-13.3c0.5-1.7,1.2-3.4,2.6-4.5c2.1-1.7,5-1.5,7.7-1.3c7.7,0.8,15.2,2.3,22.6,4.4c2.1,0.6,4.6,1.6,5.1,3.7
				c0.6,2.3-1.3,4.5-3.4,5.5c-1.1,0.5-2.5,0.8-3.5,0c-1-0.8-1-2.2-1.6-3.3c-0.9-1.7-2.9-2.4-4.8-2.6c-1.4-0.2-2.8-0.1-4.1,0.6
				c-2.7,1.5-2.8,5.3-2.3,8.3s1.5,6.3,0,9c-1.2,2.1-3.5,3.2-5.7,4.1c-8.8,3.9-17.6,7.8-27,9.8c-0.9,0.2-1.8,0.4-2.4,1
				c-1.1,1.1-0.6,3.1,0.7,4s2.9,1.1,4.4,1.1c10.3-0.1,19.5-5.8,28.9-10c6-2.7,15-5.9,20.1-6.8c1.8-0.3,7.9-0.4,12.1-0.4
				c6.5,0,31.5,3.8,39.1,1.7V65.1c-2.7,0.2-25.8,0.5-27.1,0.7C225.4,66.1,223.7,66.6,222.4,67.7z"/>
		</g>
		<g>
			<path d="M11.8,184.3c0.6-3.8,0-16.2,1-20c1.1-4.1,3.9-7.6,7.4-10.1c3.5-2.5,7.5-4.1,11.5-5.4c1.2-0.4,3.6-1.1,4.3-2.2
				c2.5-5.1,4.9-10.2,7.4-15.2c0.8-1.6,1.6-3.3,3.2-4.1c1.6-0.9,4-0.3,4.4,1.4c0.2,1-0.3,2.1-0.8,3c-1.4,2.7-2.7,5.4-3.8,8.2
				c-0.9,2.2-1.7,4.6-0.8,6.7c1.1,2.7,4.6,3.7,7.4,2.9c2.8-0.8,4.9-3,6.7-5.3c7.1-9.2,16.4-18.2,17.9-31c1.6-13.8,9.4-25,16.1-37.1
				c6.3-11.2,24.5-64.6,25.2-78.9H-0.5V200c1.8-0.9,3.5-2,5.1-3.3C8.3,193.5,11.1,189.1,11.8,184.3z"/>
		</g>
	</g>
</g>
<radialGradient id="SVGID_4_" cx="68.6521" cy="75.1284" r="198.8861" gradientUnits="userSpaceOnUse">
	<stop  offset="0" style="stop-color:#FFFFFF;stop-opacity:0.7"/>
	<stop  offset="0.6849" style="stop-color:#FFFFFF;stop-opacity:0.2"/>
</radialGradient>
<circle class="st2" cx="125.5" cy="125.5" r="122.2"/>
</svg>
