<?xml version="1.0" encoding="utf-8"?>
<!-- Generator: Adobe Illustrator 19.1.0, SVG Export Plug-In . SVG Version: 6.00 Build 0)  -->
<svg version="1.1" id="Layer_1" xmlns="http://www.w3.org/2000/svg" xmlns:xlink="http://www.w3.org/1999/xlink" x="0px" y="0px"
	 viewBox="-243 418.5 355 355" style="enable-background:new -243 418.5 355 355;" xml:space="preserve">
<style type="text/css">
	.st0{fill:#FFFFFF;}
	.st1{fill:#231F20;}
</style>
<circle class="st0" cx="-65.5" cy="596" r="173.4"/>
<g>
	<path class="st1" d="M-66.3,418.7c-97.2,0-176.4,79.1-176.4,177.3s79.7,177.4,176.5,177.4c98.2,0,177.9-79.1,177.9-177.3
		C111.7,497.9,32.1,418.7-66.3,418.7z M-169.7,720.5c-3.2-2.6-4.6-4.9-6.5-8c-15.1-24.1-23.5-109.3-4.1-138.2
		c6.2-10.2,12.7-5.5,10.5,2.4c-3.8,17.6-1.5,27.4,7.1,46.5c13.5,28.3,54.9,67.7,65.9,82c18.8,24.4,25.1,42.3,25,47.1
		c-0.1,3.7-0.8,6.1-7.3,5.5C-113.1,755.2-146,740.8-169.7,720.5z M90.3,639.6c-1.4,4.1-3,9.4-6.3,7c-6.3-4.7-20.3-13.7-33.8-18.7
		c-0.7-0.1-0.7-1.1-0.3-1.7c0.9-2.2,1.4-4.1,1.8-6.6c0.3-2.4,2.1-3.9,3.3-5.8c3.4-5.6,5.4-15.2,6.2-21.2c0.6-5.6,0.2-11.8-0.9-16.9
		c-0.5-2.2-2.1-5-2.1-7.4c0-2.4,1.1-4.9,1.4-7.7c0.7-8.1-9.6-15-15.2-17.5c-12.7-5.9-26.2-11.2-40-18.5c-7.8-4.1-13.9-13-20.2-17.8
		c-6.3-4.8-26.5-12.8-34.5-15c-1.8-0.6-2.5-1.4-2.7-2.7c-3.3-15.9-12.7-33.4-30.2-46.8c-5.7-4.5,0.7-6.9,8.5-7.3
		C47.9,430.3,118.8,543.6,90.3,639.6z M40.4,585.3c-0.1-0.6-0.3-2.7-0.3-3.2c0-1.1,2.3-2.6,3.4-3.5c1.6-1.3,3.5-2.7,4.7-3.3
		c0.5-0.2,0.7,0.3,0.8,0.5c4.6,6.9,2.9,23.9-0.5,32c-0.3,0.8-1,1.1-1.4,0.6c-1.7-3.7-4.1-7-7-8.7c-0.6-0.5-0.6-1.3-0.6-1.4
		C40.5,594.2,41,589.9,40.4,585.3z M-108.1,509.4c5.8-4.7,22.7-11.1,43-6.2c5.7,1.4,20.6,6.3,30.5,11.1c9.7,4.5,16.6,12.7,25.6,17.7
		c11.4,6.3,27.1,9.3,39.1,15.2c2.4,1.1,8.8,5.5,7.1,6.4c-6.1,2.6-16.7,1.1-23-0.3c-3.2-0.7-7.2-1.6-8.7,1.3
		c-1.7,3.1-0.5,7.8,0.8,10.6c1.6,3.4,3.8,5.9,6.6,7.2c3.9,1.8,9.3,1.9,12.9,4c6.7,3.9,7,16.5,2.5,22.7c-3.7,5.3-14.6,6.2-24.8,5.7
		c-9.8-0.5-21.2-1.5-28.4,1.5c-7.1,3-10.5,8-14.7,14.2c-0.6,0.8-1.5,0.9-2.4,0.3c-25.1-15.1-57-23-73.9-47
		c-4.2-5.9-6.9-13.1-8.2-21.7C-127.6,532.2-119.1,518.1-108.1,509.4z M-147.4,464.3c-4.9-0.6-5-4.2-3-5.6c5.4-3.8,14.2-8.3,23-11.9
		c2.6-1,4-1.4,6.4-1c6.5,0.7,17.3,5,29.6,13.8c14.7,10.5,28,30.6,19.2,29c-5.6-0.9-3.2-0.7-9.7-1.4c-6.6-0.6-11.1,0.1-14.2-0.2
		c-1.4-0.1-2.4-1-3.3-1.8C-111.8,474-126.3,466.9-147.4,464.3z M-15.7,627.1c1-2.9,2.2-4.5,4.3-5.8c4.1-2.6,11-2.7,17.6-3.2
		c6.4-0.5,13.3-0.8,17.8-3c2.7-1.3,5.5-4.9,9.8-3.1c2.1,0.9,3.1,2.7,3.8,4.6c0.7,2.1,1.1,4.1,0.9,6.9c-0.6,7.9-7.1,11.8-8.2,19.2
		c-0.1,1.1-0.3,2.9-0.9,3.4c-4.9,5-14.6,4-23.4,3.1c-3.2-0.3-6.3-0.3-8.3-1.4c-1.5-0.7-3-2.2-4.2-3.3c-2.9-2.6-4.5-4.6-7.2-7.7
		c-0.9-1-3.1-3-3.3-4.2C-17.3,631.5-16.1,628.2-15.7,627.1z M-184.8,487c1.3-1.3,2.1-1.8,3.8-2.4c22.7-5.6,45.5-2.1,61.8,5.3
		c3.7,1.6,5.4,3.9,3,5.5c-3.1,1.8-12.3,7.9-17.5,12.7c-1.5,1.3-4.1,1.4-5.7,1.1c-19.2-2.5-29.2-4-58,7c-4.5,1.8-8.5-0.7-6.4-4.1
		C-200.1,505.1-191,493.4-184.8,487z M-224.6,564.2c0.3-2.1,0.6-2.6,1.7-4.2c1.9-3,25.7-29.6,62.6-36.1c4.8-0.7,8.3-0.3,9.1,1.6
		c1.4,3.4-1.5,5.4-4.8,7.3c-59.1,35.3-54.8,87.8-55.4,109.3c0.2,8.8-6.2,10.4-7.8,6.3C-226.1,629.6-231.9,599.9-224.6,564.2z
		 M-150.3,605.6c-10.4-25.4-3.7-48.1,1-56.8c2.3-4.3,4.6-7.2,7.5-6.4c3.2,0.9,4,4.2,4.5,10.3c3.3,50.6,33.9,67.6,72.3,85.6
		c30.4,15.5,64.9,33.2,93.8,76.2c4.3,6.2,5,9.9,0.1,13.5c-17.6,12-33.6,20.4-57,25.9c-3.5,0.8-7.2,0.2-10.3-7.9
		C-70.9,662.4-125.4,666.1-150.3,605.6z M50.9,708.5c-4.9,4.9-7.8,1-9.4-2.1c-7-14.7-13.7-27.1-24.6-39c-1.9-1.9-0.5-4.6,2.4-4.3
		c3.5,0.2,5.8,0.1,9.8-1.6c3.3-1.4,7.1-6.1,9-12.7c1.4-4.8,1.5-6.3,4.5-6.6c0.7-0.1,2.1,0.1,2.9,0.3c3.7,1,7.5,4,10.4,6.2
		c7.3,5.6,18.2,17.8,20.1,21.8c1.3,2.5,0,4.2-0.7,5.7C71.4,684.1,59.2,700.2,50.9,708.5z"/>
	<path class="st1" d="M-57.7,544.2c4.3,1.5,9.1,2.6,12.5,4.6c1.9,1.1,4,4.1,6.7,3.8s4.5-5.8,5-8.6c0.8-4.1,0.3-9.3-1-11.9
		c-2.3-4.3-8.9-5.4-15.9-5c-4.7,0.2-7.3,0.7-11,1.7c-3.9,1.1-9.1,3.8-6.9,9.1C-66.8,541.4-61.5,543.1-57.7,544.2z"/>
</g>
</svg>
