<?xml version="1.0" encoding="utf-8"?>
<!-- Generator: Adobe Illustrator 19.1.0, SVG Export Plug-In . SVG Version: 6.00 Build 0)  -->
<svg version="1.1" id="Layer_1" xmlns="http://www.w3.org/2000/svg" xmlns:xlink="http://www.w3.org/1999/xlink" x="0px" y="0px"
	 viewBox="69 -30 317 317" style="enable-background:new 69 -30 317 317;" xml:space="preserve">
<style type="text/css">
	.st0{fill:#231F20;}
</style>
<g>
	<path class="st0" d="M226.8-26.8c-85.1,0-154.4,69.2-154.4,155.2s69.8,155.3,154.5,155.3c86,0,155.7-69.2,155.7-155.2
		C382.6,42.5,312.9-26.8,226.8-26.8z M136.3,237.4c-2.8-2.3-4-4.3-5.7-7c-13.2-21.1-20.6-95.7-3.6-121c5.4-8.9,11.1-4.8,9.2,2.1
		c-3.3,15.4-1.3,24,6.2,40.7c11.8,24.8,48.1,59.3,57.7,71.8c16.5,21.4,22,37,21.9,41.2c-0.1,3.2-0.7,5.3-6.4,4.8
		C185.8,267.8,157,255.2,136.3,237.4z M363.9,166.6c-1.2,3.6-2.6,8.2-5.5,6.1c-5.5-4.1-17.8-12-29.6-16.4c-0.6-0.1-0.6-1-0.3-1.5
		c0.8-1.9,1.2-3.6,1.6-5.8c0.3-2.1,1.8-3.4,2.9-5.1c3-4.9,4.7-13.3,5.4-18.6c0.5-4.9,0.2-10.3-0.8-14.8c-0.4-1.9-1.8-4.4-1.8-6.5
		s1-4.3,1.2-6.7c0.6-7.1-8.4-13.1-13.3-15.3c-11.1-5.2-22.9-9.8-35-16.2c-6.8-3.6-12.2-11.4-17.7-15.6c-5.5-4.2-23.2-11.2-30.2-13.1
		c-1.6-0.5-2.2-1.2-2.4-2.4c-2.9-13.9-11.1-29.2-26.4-41c-5-3.9,0.6-6,7.4-6.4C326.8-16.6,388.8,82.5,363.9,166.6z M320.2,119
		c-0.1-0.5-0.3-2.4-0.3-2.8c0-1,2-2.3,3-3.1c1.4-1.1,3.1-2.4,4.1-2.9c0.4-0.2,0.6,0.3,0.7,0.4c4,6,2.5,20.9-0.4,28
		c-0.3,0.7-0.9,1-1.2,0.5c-1.5-3.2-3.6-6.1-6.1-7.6c-0.5-0.4-0.5-1.1-0.5-1.2C320.3,126.8,320.7,123.2,320.2,119z M190.2,52.7
		c5.1-4.1,19.9-9.7,37.6-5.4c5,1.2,18,5.5,26.7,9.7c8.5,3.9,14.5,11.1,22.4,15.5c10,5.5,23.7,8.1,34.2,13.3c2.1,1,7.7,4.8,6.2,5.6
		c-5.3,2.3-14.6,1-20.1-0.3c-2.8-0.6-6.3-1.4-7.6,1.1c-1.5,2.7-0.4,6.8,0.7,9.3c1.4,3,3.3,5.2,5.8,6.3c3.4,1.6,8.1,1.7,11.3,3.5
		c5.9,3.4,6.1,14.4,2.2,19.9c-3.2,4.6-12.8,5.4-21.7,5c-8.6-0.4-18.6-1.3-24.9,1.3c-6.2,2.6-9.2,7-12.9,12.4
		c-0.5,0.7-1.3,0.8-2.1,0.3c-22-13.2-49.9-20.1-64.7-41.1c-3.7-5.2-6-11.5-7.2-19C173.1,72.7,180.6,60.3,190.2,52.7z M155.8,13.2
		c-4.3-0.5-4.4-3.7-2.6-4.9C157.9,5,165.6,1,173.3-2.1c2.3-0.9,3.5-1.2,5.6-0.9c5.7,0.6,15.1,4.4,25.9,12.1
		c12.9,9.2,24.5,26.8,16.8,25.4c-4.9-0.8-2.8-0.6-8.5-1.2c-5.8-0.5-9.7,0.1-12.4-0.2c-1.2-0.1-2.1-0.9-2.9-1.6
		C187,21.7,174.3,15.4,155.8,13.2z M271.1,155.6c0.9-2.5,1.9-3.9,3.8-5.1c3.6-2.3,9.6-2.4,15.4-2.8c5.6-0.4,11.6-0.7,15.6-2.6
		c2.4-1.1,4.8-4.3,8.6-2.7c1.8,0.8,2.7,2.4,3.3,4c0.6,1.8,1,3.6,0.8,6c-0.5,6.9-6.2,10.3-7.2,16.8c-0.1,1-0.3,2.5-0.8,3
		c-4.3,4.4-12.8,3.5-20.5,2.7c-2.8-0.3-5.5-0.3-7.3-1.2c-1.3-0.6-2.6-1.9-3.7-2.9c-2.5-2.3-3.9-4-6.3-6.7c-0.8-0.9-2.7-2.6-2.9-3.7
		C269.7,159.5,270.7,156.6,271.1,155.6z M123.1,33c1.1-1.1,1.8-1.6,3.3-2.1c19.9-4.9,39.8-1.8,54.1,4.6c3.2,1.4,4.7,3.4,2.6,4.8
		c-2.7,1.6-10.8,6.9-15.3,11.1c-1.3,1.1-3.6,1.2-5,1c-16.8-2.2-25.6-3.5-50.8,6.1c-3.9,1.6-7.4-0.6-5.6-3.6
		C109.7,48.8,117.6,38.7,123.1,33z M88.2,100.7c0.3-1.8,0.5-2.3,1.5-3.7c1.7-2.6,22.5-25.9,54.8-31.6c4.2-0.6,7.3-0.3,8,1.4
		c1.2,3-1.3,4.7-4.2,6.4c-51.7,30.9-48,76.9-48.5,95.7c0.2,7.7-5.4,9.1-6.8,5.5C86.9,157.8,81.8,131.8,88.2,100.7z M153.3,136.8
		c-9.1-22.2-3.2-42.1,0.9-49.7c2-3.8,4-6.3,6.6-5.6c2.8,0.8,3.5,3.7,3.9,9c2.9,44.3,29.7,59.2,63.3,74.9
		c26.6,13.6,56.8,29.1,82.1,66.7c3.8,5.4,4.4,8.7,0.1,11.8c-15.4,10.5-29.4,17.9-49.9,22.7c-3.1,0.7-6.3,0.2-9-6.9
		C222.8,186.5,175.1,189.8,153.3,136.8z M329.4,226.9c-4.3,4.3-6.8,0.9-8.2-1.8c-6.1-12.9-12-23.7-21.5-34.1c-1.7-1.7-0.4-4,2.1-3.8
		c3.1,0.2,5.1,0.1,8.6-1.4c2.9-1.2,6.2-5.3,7.9-11.1c1.2-4.2,1.3-5.5,3.9-5.8c0.6-0.1,1.8,0.1,2.5,0.3c3.2,0.9,6.6,3.5,9.1,5.4
		c6.4,4.9,15.9,15.6,17.6,19.1c1.1,2.2,0,3.7-0.6,5C347.3,205.5,336.7,219.6,329.4,226.9z"/>
	<path class="st0" d="M234.3,83.2c3.8,1.3,8,2.3,10.9,4c1.7,1,3.5,3.6,5.9,3.3c2.4-0.3,3.9-5.1,4.4-7.5c0.7-3.6,0.3-8.1-0.9-10.4
		c-2-3.8-7.8-4.7-13.9-4.4c-4.1,0.2-6.4,0.6-9.6,1.5c-3.4,1-8,3.3-6,8C226.4,80.7,231,82.2,234.3,83.2z"/>
</g>
</svg>
