<?xml version="1.0" encoding="utf-8"?>
<!-- Generator: Adobe Illustrator 19.1.0, SVG Export Plug-In . SVG Version: 6.00 Build 0)  -->
<svg version="1.1" id="Layer_1" xmlns="http://www.w3.org/2000/svg" xmlns:xlink="http://www.w3.org/1999/xlink" x="0px" y="0px"
	 viewBox="65 295.5 742.7 202.5" style="enable-background:new 65 295.5 742.7 202.5;" xml:space="preserve">
<style type="text/css">
	.st0{fill:#799A05;}
	.st1{enable-background:new    ;}
	.st2{fill:#FFFFFF;}
</style>
<g>
	<path class="st0" d="M807.7,396.8l-51-27.3v-22.6c0-28.4-23-51.4-51.4-51.4H116.4c-28.4,0-51.4,23-51.4,51.4v99.8
		c0,28.4,23,51.3,51.4,51.3h588.9c28.4,0,51.3-22.9,51.4-51.3v-22.6L807.7,396.8z"/>
	<g>
		<g class="st1">
			<path class="st2" d="M155.1,377.9h-11.4l-7.1-20l-4.2,2.4l-3.7,17.7h-10.3l10.5-49.5H139l-5.1,23.8l5.3-6.9l13.8-16.8h12.2
				l-20.1,23.7L155.1,377.9z"/>
			<path class="st2" d="M192,377.9h-10.2l4.6-22.1c0.4-1.5,0.5-2.9,0.5-4c0-2.8-1.2-4.2-3.7-4.2c-2.1,0-4,1.3-5.7,3.9
				c-1.7,2.6-3,6.2-4,10.8l-3.3,15.7h-10.2l8-37.8h7.8l-0.7,7h0.2c3.3-5.1,7.3-7.7,12-7.7c3.1,0,5.5,0.9,7.2,2.8
				c1.7,1.9,2.6,4.6,2.6,8.1c0,1.6-0.3,3.7-0.8,6.1L192,377.9z"/>
			<path class="st2" d="M238.3,354.3c0,4.8-0.8,9-2.4,12.7s-3.9,6.5-6.9,8.5c-3,2-6.6,3-10.7,3c-4.4,0-7.9-1.3-10.5-4
				c-2.6-2.7-3.9-6.2-3.9-10.6c0-4.8,0.8-9.1,2.4-12.8c1.6-3.8,3.9-6.7,7-8.7c3-2.1,6.6-3.1,10.7-3.1c4.4,0,7.9,1.3,10.5,4
				C237,346,238.3,349.6,238.3,354.3z M228,354.3c0-4.4-1.6-6.7-4.8-6.7c-1.7,0-3.2,0.7-4.6,2.1c-1.3,1.4-2.4,3.4-3.3,6.1
				c-0.8,2.7-1.3,5.4-1.3,8.2c0,4.2,1.7,6.3,5.1,6.3c1.7,0,3.2-0.7,4.6-2.1c1.4-1.4,2.4-3.3,3.2-5.8
				C227.6,359.9,228,357.2,228,354.3z"/>
			<path class="st2" d="M270.3,348.8c-1.4,4-2.8,7.6-4.2,10.8l-7.9,18.3h-11l-1.7-37.8h9.5l0.1,16.7l-0.1,5.7l-0.2,5.8h0.1
				c0.1-0.5,0.3-0.9,0.5-1.4s0.8-2,1.7-4.6s1.5-3.9,1.6-4l7.8-18.1h11.1v18.1c0,3.2-0.1,6.6-0.3,10h0.2l0.9-2.7
				c1.6-4.7,2.7-7.6,3.2-8.7L289,340h10.4l-17.9,37.8h-11.2l-0.2-17.6c0-3.5,0.1-7.3,0.3-11.5H270.3z"/>
			<path class="st2" d="M342.9,348.8c-1.4,4-2.8,7.6-4.2,10.8l-7.9,18.3h-11l-1.7-37.8h9.5l0.1,16.7l-0.1,5.7l-0.2,5.8h0.1
				c0.1-0.5,0.3-0.9,0.5-1.4s0.8-2,1.7-4.6s1.5-3.9,1.6-4l7.8-18.1h11.1v18.1c0,3.2-0.1,6.6-0.3,10h0.2l0.9-2.7
				c1.6-4.7,2.7-7.6,3.2-8.7l7.4-16.7H372l-17.9,37.8h-11.2l-0.2-17.6c0-3.5,0.1-7.3,0.3-11.5H342.9z"/>
			<path class="st2" d="M401.6,377.9h-10.2l4.6-22.1c0.4-1.5,0.5-2.9,0.5-4c0-2.8-1.2-4.2-3.7-4.2c-2.1,0-4,1.3-5.7,3.9
				c-1.7,2.6-3,6.2-4,10.8l-3.3,15.7h-10.2l11.2-52.6h10.2c-0.9,4.1-1.6,7.2-2,9.4c-0.5,2.2-1.4,5.7-2.9,10.5h0.3
				c1.4-1.7,3-3.1,4.7-4.2c1.7-1,3.7-1.6,6-1.6c3.1,0,5.5,0.9,7.2,2.8c1.7,1.9,2.6,4.6,2.6,8.1c0,1.6-0.3,3.7-0.8,6.1L401.6,377.9z"
				/>
			<path class="st2" d="M428.4,378.5c-4.7,0-8.4-1.3-11-3.8s-3.9-6.1-3.9-10.8c0-4.7,0.9-8.9,2.8-12.8c1.9-3.8,4.4-6.8,7.6-8.8
				c3.2-2,6.8-3,10.8-3c4,0,7.1,0.9,9.3,2.8c2.2,1.8,3.3,4.4,3.3,7.6c0,4.2-1.9,7.5-5.7,9.8c-3.8,2.3-9.1,3.4-16.1,3.4h-1.7
				l-0.1,0.7v0.7c0,2.1,0.6,3.7,1.7,4.9c1.2,1.2,2.8,1.8,5,1.8c2,0,3.7-0.2,5.3-0.6s3.5-1.2,5.8-2.3v7.7
				C437.7,377.6,433.3,378.5,428.4,378.5z M433.9,346.7c-2,0-3.9,0.9-5.6,2.7c-1.8,1.8-2.9,4-3.5,6.6h1.5c3.5,0,6.2-0.5,8.2-1.6
				c2-1.1,2.9-2.6,2.9-4.4C437.5,347.7,436.3,346.7,433.9,346.7z"/>
			<path class="st2" d="M477.5,339.3c1.3,0,2.4,0.1,3.2,0.4l-2.2,9.8c-1-0.4-2.1-0.5-3.4-0.5c-2.6,0-4.9,1-6.9,3.1
				c-2,2.1-3.4,5-4.2,8.9l-3.6,16.9h-10.2l8-37.8h7.8l-0.7,7h0.2C468.8,341.9,472.8,339.3,477.5,339.3z"/>
			<path class="st2" d="M496.1,378.5c-4.7,0-8.4-1.3-11-3.8s-3.9-6.1-3.9-10.8c0-4.7,0.9-8.9,2.8-12.8c1.9-3.8,4.4-6.8,7.6-8.8
				c3.2-2,6.8-3,10.8-3c4,0,7.1,0.9,9.3,2.8c2.2,1.8,3.3,4.4,3.3,7.6c0,4.2-1.9,7.5-5.7,9.8c-3.8,2.3-9.1,3.4-16.1,3.4h-1.7
				l-0.1,0.7v0.7c0,2.1,0.6,3.7,1.7,4.9c1.2,1.2,2.8,1.8,5,1.8c2,0,3.7-0.2,5.3-0.6s3.5-1.2,5.8-2.3v7.7
				C505.5,377.6,501.1,378.5,496.1,378.5z M501.7,346.7c-2,0-3.9,0.9-5.6,2.7c-1.8,1.8-2.9,4-3.5,6.6h1.5c3.5,0,6.2-0.5,8.2-1.6
				c2-1.1,2.9-2.6,2.9-4.4C505.2,347.7,504.1,346.7,501.7,346.7z"/>
			<path class="st2" d="M552.1,370.3c1.5,0,3.3-0.4,5.5-1.2v7.6c-2.5,1.2-5.5,1.8-9,1.8c-3.4,0-5.9-0.7-7.5-2.1
				c-1.6-1.4-2.4-3.6-2.4-6.6c0-1.1,0.1-2.4,0.4-3.8l3.9-18.2h-5.1l1-5l6.6-2.8l4.5-8h6.6l-1.7,8.1h9.6l-1.7,7.7h-9.5l-3.9,18.2
				c-0.1,0.7-0.2,1.3-0.2,1.8C549.2,369.5,550.2,370.3,552.1,370.3z"/>
			<path class="st2" d="M596.2,377.9H586l4.6-22.1c0.4-1.5,0.5-2.9,0.5-4c0-2.8-1.2-4.2-3.7-4.2c-2.1,0-4,1.3-5.7,3.9
				c-1.7,2.6-3,6.2-4,10.8l-3.3,15.7h-10.2l11.2-52.6h10.2c-0.9,4.1-1.6,7.2-2,9.4c-0.5,2.2-1.4,5.7-2.9,10.5h0.3
				c1.4-1.7,3-3.1,4.7-4.2c1.7-1,3.7-1.6,6-1.6c3.1,0,5.5,0.9,7.2,2.8c1.7,1.9,2.6,4.6,2.6,8.1c0,1.6-0.3,3.7-0.8,6.1L596.2,377.9z"
				/>
			<path class="st2" d="M616.5,377.9h-10.2l8-37.8h10.2L616.5,377.9z M615.9,331.2c0-2,0.5-3.4,1.6-4.4c1.1-1,2.6-1.5,4.6-1.5
				c1.6,0,2.9,0.3,3.8,1c0.9,0.7,1.3,1.7,1.3,3c0,1.8-0.5,3.3-1.5,4.4c-1,1.1-2.5,1.7-4.6,1.7C617.6,335.3,615.9,333.9,615.9,331.2z
				"/>
			<path class="st2" d="M653.6,365.4c0,4.2-1.4,7.5-4.2,9.8c-2.8,2.3-6.7,3.4-11.7,3.4c-2.4,0-4.5-0.2-6.3-0.5
				c-1.8-0.3-3.5-0.9-5-1.7v-8.4c3.5,2,7.1,3,10.8,3c1.8,0,3.3-0.4,4.4-1.1s1.7-1.7,1.7-3c0-1-0.4-1.8-1.3-2.6
				c-0.8-0.8-2.3-1.7-4.4-2.9c-2.7-1.5-4.6-3.1-5.7-4.6s-1.6-3.3-1.6-5.4c0-3.8,1.2-6.8,3.7-8.9s6.1-3.2,10.7-3.2
				c4.5,0,8.6,1.1,12.3,3.2l-3.3,7.3c-3.2-1.9-6.1-2.8-8.7-2.8c-1.3,0-2.3,0.3-3.1,0.9c-0.8,0.6-1.2,1.3-1.2,2.3
				c0,0.9,0.4,1.7,1.1,2.3c0.7,0.7,2.1,1.5,4.1,2.5c2.8,1.4,4.8,3,6,4.6C653,361.3,653.6,363.2,653.6,365.4z"/>
		</g>
		<g class="st1">
			<path class="st2" d="M144,422.5c3.3,0,5.9,1.2,7.8,3.6c1.9,2.4,2.9,5.8,2.9,10.2c0,4.3-0.8,8.5-2.3,12.4c-1.5,4-3.7,7.1-6.3,9.5
				c-2.7,2.3-5.6,3.5-8.9,3.5c-1.9,0-3.5-0.4-4.8-1.3s-2.6-2.3-3.8-4.3h-0.3c-0.3,3.6-0.8,6.9-1.5,10l-2.4,11.5h-10.2l11.6-54.5h7.8
				l-0.6,5.8h0.3C136.3,424.7,139.9,422.5,144,422.5z M139.9,430.8c-1.5,0-3,0.8-4.4,2.3c-1.4,1.5-2.6,3.6-3.5,6.1
				c-0.9,2.5-1.3,5.3-1.3,8.4c0,1.8,0.4,3.2,1.3,4.3c0.8,1.1,2,1.6,3.5,1.6c1.5,0,3-0.8,4.3-2.3c1.4-1.6,2.5-3.7,3.3-6.4
				c0.8-2.7,1.3-5.4,1.3-8C144.3,432.8,142.8,430.8,139.9,430.8z"/>
			<path class="st2" d="M190.7,461.1h-10.2l4.6-22.1c0.4-1.5,0.5-2.9,0.5-4c0-2.8-1.2-4.2-3.7-4.2c-2.1,0-4,1.3-5.7,3.9
				c-1.7,2.6-3,6.2-4,10.8l-3.3,15.7h-10.2l11.2-52.6h10.2c-0.9,4.1-1.6,7.2-2,9.4c-0.5,2.2-1.4,5.7-2.9,10.5h0.3
				c1.4-1.7,3-3.1,4.7-4.2c1.7-1,3.7-1.6,6-1.6c3.1,0,5.5,0.9,7.2,2.8c1.7,1.9,2.6,4.6,2.6,8.1c0,1.6-0.3,3.7-0.8,6.1L190.7,461.1z"
				/>
			<path class="st2" d="M237,437.5c0,4.8-0.8,9-2.4,12.7s-3.9,6.5-6.9,8.5c-3,2-6.6,3-10.7,3c-4.4,0-7.9-1.3-10.5-4
				c-2.6-2.7-3.9-6.2-3.9-10.6c0-4.8,0.8-9.1,2.4-12.8c1.6-3.8,3.9-6.7,7-8.7c3-2.1,6.6-3.1,10.7-3.1c4.4,0,7.9,1.3,10.5,4
				C235.7,429.2,237,432.8,237,437.5z M226.8,437.5c0-4.4-1.6-6.7-4.8-6.7c-1.7,0-3.2,0.7-4.6,2.1c-1.3,1.4-2.4,3.4-3.3,6.1
				c-0.8,2.7-1.3,5.4-1.3,8.2c0,4.2,1.7,6.3,5.1,6.3c1.7,0,3.2-0.7,4.6-2.1c1.4-1.4,2.4-3.3,3.2-5.8
				C226.4,443.1,226.8,440.4,226.8,437.5z"/>
			<path class="st2" d="M257.5,453.5c1.5,0,3.3-0.4,5.5-1.2v7.6c-2.5,1.2-5.5,1.8-9,1.8c-3.4,0-5.9-0.7-7.5-2.1s-2.4-3.6-2.4-6.6
				c0-1.1,0.1-2.4,0.4-3.8l3.9-18.2h-5.1l1-5l6.6-2.8l4.5-8h6.6l-1.7,8.1h9.6l-1.7,7.7h-9.5l-3.9,18.2c-0.1,0.7-0.2,1.3-0.2,1.8
				C254.5,452.7,255.5,453.5,257.5,453.5z"/>
			<path class="st2" d="M306,437.5c0,4.8-0.8,9-2.4,12.7s-3.9,6.5-6.9,8.5c-3,2-6.6,3-10.7,3c-4.4,0-7.9-1.3-10.5-4
				c-2.6-2.7-3.9-6.2-3.9-10.6c0-4.8,0.8-9.1,2.4-12.8c1.6-3.8,3.9-6.7,7-8.7c3-2.1,6.6-3.1,10.7-3.1c4.4,0,7.9,1.3,10.5,4
				C304.7,429.2,306,432.8,306,437.5z M295.7,437.5c0-4.4-1.6-6.7-4.8-6.7c-1.7,0-3.2,0.7-4.6,2.1c-1.3,1.4-2.4,3.4-3.3,6.1
				c-0.8,2.7-1.3,5.4-1.3,8.2c0,4.2,1.7,6.3,5.1,6.3c1.7,0,3.2-0.7,4.6-2.1c1.4-1.4,2.4-3.3,3.2-5.8
				C295.4,443.1,295.7,440.4,295.7,437.5z"/>
			<path class="st2" d="M356,432c-1.4,4-2.8,7.6-4.2,10.8l-7.9,18.3h-11l-1.7-37.8h9.5l0.1,16.7l-0.1,5.7l-0.2,5.8h0.1
				c0.1-0.5,0.3-0.9,0.5-1.4s0.8-2,1.7-4.6s1.5-3.9,1.6-4l7.8-18.1h11.1v18.1c0,3.2-0.1,6.6-0.3,10h0.2l0.9-2.7
				c1.6-4.7,2.7-7.6,3.2-8.7l7.4-16.7h10.4l-17.9,37.8h-11.2l-0.2-17.6c0-3.5,0.1-7.3,0.3-11.5H356z"/>
			<path class="st2" d="M395.4,461.7c-3.3,0-5.9-1.2-7.8-3.6c-1.9-2.4-2.9-5.8-2.9-10.1c0-4.5,0.8-8.7,2.4-12.8
				c1.6-4,3.8-7.2,6.4-9.4s5.5-3.3,8.7-3.3c2.2,0,4.1,0.5,5.7,1.4c1.6,0.9,2.8,2.3,3.7,4.1h0.3l1.9-4.8h7.8l-8.1,37.8h-7.7l0.5-4.9
				h-0.1C403.1,459.9,399.6,461.7,395.4,461.7z M399.4,453.5c1.6,0,3.1-0.8,4.5-2.3c1.4-1.5,2.6-3.6,3.5-6.1
				c0.9-2.6,1.3-5.5,1.3-8.8c0-1.6-0.4-2.9-1.3-4c-0.9-1-2-1.6-3.4-1.6c-1.5,0-3,0.8-4.4,2.4s-2.5,3.8-3.3,6.4
				c-0.8,2.7-1.2,5.3-1.2,7.9c0,2,0.4,3.5,1.1,4.5C396.9,453,398,453.5,399.4,453.5z"/>
			<path class="st2" d="M450.9,448.6c0,4.2-1.4,7.5-4.2,9.8c-2.8,2.3-6.7,3.4-11.7,3.4c-2.4,0-4.5-0.2-6.3-0.5
				c-1.8-0.3-3.5-0.9-5-1.7v-8.4c3.5,2,7.1,3,10.8,3c1.8,0,3.3-0.4,4.4-1.1s1.7-1.7,1.7-3c0-1-0.4-1.8-1.3-2.6
				c-0.8-0.8-2.3-1.7-4.4-2.9c-2.7-1.5-4.6-3.1-5.7-4.6s-1.6-3.3-1.6-5.4c0-3.8,1.2-6.8,3.7-8.9s6.1-3.2,10.7-3.2
				c4.5,0,8.6,1.1,12.3,3.2l-3.3,7.3c-3.2-1.9-6.1-2.8-8.7-2.8c-1.3,0-2.3,0.3-3.1,0.9c-0.8,0.6-1.2,1.3-1.2,2.3
				c0,0.9,0.4,1.7,1.1,2.3c0.7,0.7,2.1,1.5,4.1,2.5c2.8,1.4,4.8,3,6,4.6C450.2,444.5,450.9,446.4,450.9,448.6z"/>
			<path class="st2" d="M491,453.5c1.5,0,3.3-0.4,5.5-1.2v7.6c-2.5,1.2-5.5,1.8-9,1.8c-3.4,0-5.9-0.7-7.5-2.1
				c-1.6-1.4-2.4-3.6-2.4-6.6c0-1.1,0.1-2.4,0.4-3.8l3.9-18.2h-5.1l1-5l6.6-2.8l4.5-8h6.6l-1.7,8.1h9.6l-1.7,7.7h-9.5l-3.9,18.2
				c-0.1,0.7-0.2,1.3-0.2,1.8C488,452.7,489,453.5,491,453.5z"/>
			<path class="st2" d="M515.8,461.7c-3.3,0-5.9-1.2-7.8-3.6c-1.9-2.4-2.9-5.8-2.9-10.1c0-4.5,0.8-8.7,2.4-12.8s3.8-7.2,6.4-9.4
				s5.5-3.3,8.7-3.3c2.2,0,4.1,0.5,5.7,1.4c1.6,0.9,2.8,2.3,3.7,4.1h0.3l1.9-4.8h7.9l-8.1,37.8h-7.7l0.5-4.9h-0.1
				C523.5,459.9,519.9,461.7,515.8,461.7z M519.8,453.5c1.6,0,3.1-0.8,4.5-2.3c1.4-1.5,2.6-3.6,3.5-6.1c0.9-2.6,1.3-5.5,1.3-8.8
				c0-1.6-0.4-2.9-1.3-4c-0.9-1-2-1.6-3.4-1.6c-1.5,0-3,0.8-4.4,2.4c-1.4,1.6-2.5,3.8-3.3,6.4c-0.8,2.7-1.2,5.3-1.2,7.9
				c0,2,0.4,3.5,1.1,4.5C517.3,453,518.4,453.5,519.8,453.5z"/>
			<path class="st2" d="M574.3,423.2H586l-16.9,17.1l9.6,20.8h-11.4l-6.2-14.2l-4.1,2.4l-2.5,11.8h-10.2l11.2-52.6h10.2l-5,23.5
				c-0.2,0.9-0.5,2.2-1,4l-0.9,3.5h0.1L574.3,423.2z"/>
			<path class="st2" d="M600.6,461.7c-4.7,0-8.4-1.3-11-3.8s-3.9-6.1-3.9-10.8c0-4.7,0.9-8.9,2.8-12.8c1.9-3.8,4.4-6.8,7.6-8.8
				c3.2-2,6.8-3,10.8-3c4,0,7.1,0.9,9.3,2.8c2.2,1.8,3.3,4.4,3.3,7.6c0,4.2-1.9,7.5-5.7,9.8c-3.8,2.3-9.1,3.4-16.1,3.4h-1.7
				l-0.1,0.7v0.7c0,2.1,0.6,3.7,1.7,4.9c1.2,1.2,2.8,1.8,5,1.8c2,0,3.7-0.2,5.3-0.6s3.5-1.2,5.8-2.3v7.7
				C609.9,460.8,605.5,461.7,600.6,461.7z M606.1,429.9c-2,0-3.9,0.9-5.6,2.7c-1.8,1.8-2.9,4-3.5,6.6h1.5c3.5,0,6.2-0.5,8.2-1.6
				c2-1.1,2.9-2.6,2.9-4.4C609.7,430.9,608.5,429.9,606.1,429.9z"/>
			<path class="st2" d="M654.2,461.1H644l4.6-22.1c0.4-1.5,0.5-2.9,0.5-4c0-2.8-1.2-4.2-3.7-4.2c-2.1,0-4,1.3-5.7,3.9
				c-1.7,2.6-3,6.2-4,10.8l-3.3,15.7h-10.2l8-37.8h7.8l-0.7,7h0.2c3.3-5.1,7.3-7.7,12-7.7c3.1,0,5.5,0.9,7.2,2.8
				c1.7,1.9,2.6,4.6,2.6,8.1c0,1.6-0.3,3.7-0.8,6.1L654.2,461.1z"/>
			<path class="st2" d="M668.6,457.2c0-2.1,0.6-3.7,1.9-4.9c1.2-1.2,2.9-1.8,5.1-1.8c1.5,0,2.8,0.4,3.7,1.3c0.9,0.9,1.4,2.1,1.4,3.6
				c0,2-0.6,3.6-1.9,4.8c-1.2,1.2-2.9,1.8-4.8,1.8c-1.7,0-3-0.4-3.9-1.3C669.1,459.8,668.6,458.7,668.6,457.2z M671.8,444.7l0.5-2.6
				c0.4-2.3,1.3-4.3,2.5-6c1.2-1.7,3.2-3.4,5.8-5.2c2.8-1.9,4.6-3.3,5.3-4.3s1.1-2.1,1.1-3.2c0-2.7-1.5-4-4.5-4
				c-1.1,0-2.3,0.2-3.6,0.5c-1.3,0.4-3.5,1.3-6.8,2.8l-3.1-7.5c5.2-2.8,10.2-4.2,15.1-4.2c4,0,7.2,1,9.5,3c2.3,2,3.5,4.7,3.5,8.3
				c0,1.9-0.3,3.6-1,5.1c-0.6,1.5-1.6,2.9-2.8,4.2s-3.4,2.9-6.4,5c-1.4,1-2.5,1.8-3.3,2.5c-0.7,0.7-1.3,1.4-1.8,2.2
				c-0.5,0.8-0.9,2-1.3,3.7H671.8z"/>
		</g>
	</g>
</g>
</svg>
